<?xml version="1.0" encoding="UTF-8"?>
<svg xmlns="http://www.w3.org/2000/svg" height="45px" width="338px" viewBox="348 280 115 65">
  <path stroke-width="1" d="M 395.51,303.97            C 395.51,303.97 387.12,307.74 387.12,307.74              387.12,307.74 382.30,298.90 382.30,298.90              382.30,298.90 377.56,290.17 377.56,290.17              377.56,290.17 383.13,281.21 383.13,281.21              383.13,281.21 387.53,289.29 387.53,289.29              387.53,289.29 395.51,303.97 395.51,303.97 Z            M 393.68,320.34            C 393.68,320.34 403.33,338.08 403.33,338.08              403.33,338.08 413.97,338.08 413.97,338.08              413.97,338.08 402.23,316.50 402.23,316.50              402.23,316.50 393.68,320.34 393.68,320.34 Z            M 429.09,297.37            C 429.09,297.37 425.60,301.88 425.60,301.88              425.60,301.88 422.75,305.56 422.75,305.56              422.75,305.56 413.10,318.02 413.10,318.02              413.10,318.02 414.26,309.32 414.26,309.32              414.26,309.32 347.17,338.49 347.17,338.49              347.17,338.49 375.96,292.24 375.96,292.24              375.96,292.24 381.48,302.49 381.48,302.49              381.48,302.49 371.93,316.70 371.93,316.70              371.93,316.70 390.60,308.40 390.60,308.40              390.60,308.40 400.09,304.18 400.09,304.18              400.09,304.18 410.46,299.58 410.46,299.58              410.46,299.58 402.91,293.99 402.91,293.99              402.91,293.99 418.52,296.01 418.52,296.01              418.52,296.01 423.35,296.63 423.35,296.63              423.35,296.63 429.09,297.37 429.09,297.37 Z            M 440.61,328.75            C 440.61,328.75 440.61,282.28 440.61,282.28              440.61,282.28 432.84,282.28 432.84,282.28              432.84,282.28 432.84,336.50 432.84,336.50              432.84,336.50 474.72,336.50 474.72,336.50              474.72,336.50 474.72,328.75 474.72,328.75              474.72,328.75 440.61,328.75 440.61,328.75 Z            M 526.06,297.05            C 526.06,289.39 520.06,283.14 512.50,282.73              512.50,282.73 512.52,282.72 512.52,282.72              512.52,282.72 482.84,282.72 482.84,282.72              482.84,282.72 482.84,336.50 482.84,336.50              482.84,336.50 490.61,336.50 490.61,336.50              490.61,336.50 490.61,311.44 490.61,311.44              490.61,311.44 512.97,311.44 512.97,311.44              512.97,311.44 512.86,311.34 512.86,311.34              520.25,310.77 526.06,304.59 526.06,297.05 Z            M 511.73,303.62            C 511.73,303.62 490.61,303.62 490.61,303.62              490.61,303.62 490.61,290.50 490.61,290.50              490.61,290.50 511.16,290.50 511.16,290.50              511.19,290.50 511.22,290.50 511.25,290.50              511.41,290.48 511.56,290.48 511.73,290.48              515.34,290.48 518.30,293.42 518.30,297.05              518.30,300.67 515.34,303.62 511.73,303.62 Z            M 573.17,282.81            C 573.17,282.81 573.17,303.89 573.17,303.89              573.17,303.89 541.61,303.89 541.61,303.89              541.61,303.89 541.61,282.81 541.61,282.81              541.61,282.81 533.84,282.81 533.84,282.81              533.84,282.81 533.84,336.50 533.84,336.50              533.84,336.50 541.61,336.50 541.61,336.50              541.61,336.50 541.61,311.64 541.61,311.64              541.61,311.64 573.17,311.64 573.17,311.64              573.17,311.64 573.17,336.50 573.17,336.50              573.17,336.50 580.92,336.50 580.92,336.50              580.92,336.50 580.92,282.81 580.92,282.81              580.92,282.81 573.17,282.81 573.17,282.81 Z            M 585.66,336.50            C 585.66,336.50 595.91,336.50 595.91,336.50              595.91,336.50 612.97,305.67 612.97,305.67              612.97,305.67 607.86,296.37 607.86,296.37              607.86,296.37 585.66,336.50 585.66,336.50 Z            M 620.66,291.77            C 620.66,291.77 615.53,282.52 615.53,282.52              615.53,282.52 610.41,291.77 610.41,291.77              610.41,291.77 615.53,301.03 615.53,301.03              615.53,301.03 635.17,336.50 635.17,336.50              635.17,336.50 645.42,336.50 645.42,336.50              645.42,336.50 620.66,291.77 620.66,291.77 Z            M 198.03,309.75            C 198.03,309.75 197.09,308.21 197.09,308.21              197.14,308.18 197.20,308.15 197.25,308.12              197.26,308.10 197.30,308.09 197.31,308.07              197.45,307.99 197.59,307.90 197.74,307.80              197.74,307.80 197.75,307.79 197.75,307.79              197.91,307.69 198.05,307.58 198.19,307.49              198.51,307.27 198.80,307.03 199.10,306.81              199.18,306.75 199.28,306.69 199.35,306.62              199.46,306.53 199.57,306.44 199.70,306.34              199.86,306.22 200.01,306.09 200.17,305.95              200.19,305.93 200.19,305.92 200.20,305.92              200.33,305.81 200.45,305.70 200.56,305.60              200.93,305.29 201.27,304.96 201.62,304.63              205.25,301.03 207.89,296.41 209.04,291.24              209.46,289.33 209.68,287.37 209.68,285.34              209.68,284.70 209.65,284.05 209.60,283.42              209.60,283.42 164.71,283.42 164.71,283.42              164.71,283.42 164.71,337.70 164.71,337.70              164.71,337.70 172.52,337.70 172.52,337.70              172.52,337.70 172.52,312.42 172.52,312.42              172.52,312.42 182.58,312.42 182.58,312.42              182.77,312.42 182.96,312.42 183.15,312.42              183.24,312.42 183.34,312.42 183.43,312.42              183.59,312.41 183.73,312.41 183.89,312.39              183.92,312.39 183.97,312.39 184.00,312.39              184.20,312.38 184.42,312.38 184.63,312.36              184.64,312.36 184.64,312.35 184.64,312.35              184.88,312.33 185.10,312.31 185.33,312.30              185.52,312.27 185.70,312.25 185.88,312.24              185.96,312.22 186.04,312.20 186.12,312.20              186.29,312.17 186.47,312.16 186.64,312.13              186.70,312.11 186.78,312.11 186.84,312.09              186.98,312.08 187.11,312.05 187.25,312.03              187.72,311.95 188.18,311.86 188.65,311.75              188.85,311.70 189.06,311.65 189.25,311.61              189.29,311.59 189.34,311.57 189.39,311.56              189.53,311.53 189.67,311.50 189.81,311.45              189.85,311.45 189.88,311.43 189.91,311.43              189.91,311.43 190.33,312.13 190.33,312.13              190.33,312.13 205.94,337.71 205.94,337.71              205.94,337.71 215.07,337.71 215.07,337.71              215.07,337.71 198.03,309.75 198.03,309.75 Z            M 190.24,303.06            C 187.85,304.08 185.26,304.63 182.58,304.63              182.58,304.63 172.52,304.63 172.52,304.63              172.52,304.63 172.52,291.24 172.52,291.24              172.52,291.24 200.94,291.24 200.94,291.24              200.01,294.17 198.36,296.86 196.13,299.06              194.40,300.78 192.41,302.11 190.24,303.06 Z            M 223.06,337.70            C 223.06,337.70 223.06,283.47 223.06,283.47              223.06,283.47 230.87,283.47 230.87,283.47              230.87,283.47 230.87,337.70 230.87,337.70              230.87,337.70 223.06,337.70 223.06,337.70 Z            M 230.60,283.74            C 230.60,283.74 223.33,283.74 223.33,283.74              223.33,283.74 223.33,337.45 223.33,337.45              223.33,337.45 230.60,337.45 230.60,337.45              230.60,337.45 230.60,283.74 230.60,283.74 Z            M 223.06,283.47            C 223.06,283.47 223.06,337.70 223.06,337.70              223.06,337.70 230.87,337.70 230.87,337.70              230.87,337.70 230.87,283.47 230.87,283.47              230.87,283.47 223.06,283.47 223.06,283.47 Z            M 270.53,306.73            C 270.53,306.73 255.01,306.73 255.01,306.73              254.57,306.69 254.12,306.67 253.66,306.67              253.39,306.67 253.14,306.69 252.88,306.69              248.99,306.31 245.96,303.02 245.96,299.05              245.96,294.82 249.40,291.36 253.65,291.36              253.65,291.36 270.79,291.36 270.79,291.36              274.77,291.50 277.98,294.68 278.20,298.64              278.20,298.64 286.01,298.64 286.01,298.64              285.95,296.00 285.21,293.51 283.98,291.36              283.98,291.36 283.98,291.36 283.97,291.36              281.36,286.80 276.50,283.71 270.90,283.56              270.78,283.55 270.64,283.55 270.50,283.55              270.37,283.55 270.23,283.55 270.10,283.56              270.10,283.56 253.65,283.56 253.65,283.56              247.88,283.56 242.86,286.71 240.19,291.36              238.89,293.62 238.15,296.25 238.15,299.05              238.15,301.85 238.89,304.47 240.19,306.73              240.84,307.87 241.62,308.90 242.53,309.85              245.35,312.74 249.28,314.53 253.65,314.53              253.65,314.53 270.53,314.53 270.53,314.53              274.76,314.53 278.21,317.99 278.21,322.22              278.21,326.46 274.76,329.90 270.53,329.90              270.53,329.90 253.66,329.90 253.66,329.90              249.56,329.90 246.20,326.68 245.96,322.62              245.96,322.62 238.15,322.62 238.15,322.62              238.23,325.27 238.96,327.75 240.19,329.90              242.88,334.57 247.91,337.70 253.66,337.70              253.66,337.70 270.53,337.70 270.53,337.70              276.28,337.70 281.31,334.57 283.98,329.90              285.27,327.64 286.01,325.01 286.01,322.22              286.01,319.42 285.27,316.79 283.98,314.53              281.31,309.88 276.28,306.73 270.53,306.73 Z            M 301.29,307.50            C 301.29,307.50 301.29,283.60 301.29,283.60              301.29,283.60 293.48,283.60 293.48,283.60              293.48,283.60 293.48,315.32 293.48,315.32              293.48,315.32 301.29,307.50 301.29,307.50 Z            M 314.74,310.65            C 314.74,310.65 341.79,283.60 341.79,283.60              341.79,283.60 330.76,283.60 330.76,283.60              330.76,283.60 301.29,313.07 301.29,313.07              301.29,313.07 301.29,313.02 301.29,313.02              301.29,313.02 293.48,320.83 293.48,320.83              293.48,320.83 293.48,337.70 293.48,337.70              293.48,337.70 301.29,337.70 301.29,337.70              301.29,337.70 301.29,324.10 301.29,324.10              301.29,324.10 309.23,316.16 309.23,316.16              309.23,316.16 330.76,337.70 330.76,337.70              330.76,337.70 341.81,337.70 341.81,337.70              341.81,337.70 314.74,310.65 314.74,310.65 Z" fill="#fff"/>
</svg>